<?xml version="1.0" encoding="UTF-8"?>
<svg width="120px" height="160px" viewBox="0 0 120 160" version="1.1" xmlns="http://www.w3.org/2000/svg" xmlns:xlink="http://www.w3.org/1999/xlink">
    <!-- Generator: Sketch 56.2 (81672) - https://sketch.com -->
    <title>logo</title>
    <desc>Created with Sketch.</desc>
    <defs>
        <path d="M73.0223124,47.631935 L73.0223124,43.9512855 C73.0223124,39.3324081 71.9675562,35.3992043 69.8580122,32.1515562 C67.7484682,28.903908 64.5030645,27.2801083 60.1217039,27.2801083 C55.2535254,27.2801083 51.6835813,28.6874014 49.4117647,31.5020298 C47.1399481,34.3166582 46.0040568,37.4560043 46.0040568,40.9201624 C46.0040568,45.9720595 47.8295963,49.9774322 51.4807302,52.9364005 C55.1318641,55.8953689 59.7159968,58.457364 65.2332657,60.6224628 C70.7505347,62.7875616 76.6733963,64.9887123 83.0020284,67.2259811 C89.3306604,69.4632498 95.2535221,72.3860893 100.770791,75.9945873 C106.28806,79.6030853 110.872193,84.3301467 114.523327,90.1759134 C118.17446,96.0216801 120,103.635497 120,113.017591 C120,129.472342 114.726219,141.416291 104.178499,148.849797 C93.6307789,156.283303 78.3773817,160 58.4178499,160 C49.0060381,160 40.6896913,159.314396 33.4685598,157.943166 C26.2474284,156.571937 20.1622966,154.190364 15.2129817,150.798376 C10.2636669,147.406388 6.49088519,142.968002 3.89452333,137.483085 C1.29816146,131.998168 0,125.214294 0,117.131258 L0,111.718539 L43.8133874,111.718539 L43.8133874,115.399188 C43.8133874,122.038824 45.192684,126.693717 47.9513185,129.364005 C50.7099391,132.034294 54.279897,133.369418 58.6612576,133.369418 C63.3671635,133.369418 66.9776751,131.926041 69.4929006,129.039242 C72.0081262,126.152444 73.2657201,122.616169 73.2657201,118.430311 C73.2657201,113.378414 71.5213156,109.373041 68.0324544,106.414073 C64.5435931,103.455105 60.1622982,100.929194 54.8884381,98.8362652 C49.6145781,96.7433364 43.8945542,94.6143545 37.7281947,92.4492558 C31.5618353,90.284157 25.8418114,87.4695708 20.5679513,84.0054127 C15.2940913,80.5412547 10.9127963,75.9946154 7.42393509,70.3653586 C3.93507383,64.7361018 2.19066937,57.3748763 2.19066937,48.2814614 C2.19066937,32.5484103 6.89650467,20.5683767 16.3083164,12.3410014 C25.7201282,4.11362598 39.9999043,0 59.148073,0 C78.9453323,0 93.2656759,3.78886604 102.109533,11.3667118 C110.953391,18.9445575 115.375254,31.0328444 115.375254,47.631935 L73.0223124,47.631935 Z" id="path-1"></path>
    </defs>
    <g id="Page-1" stroke="none" stroke-width="1" fill="none" fill-rule="evenodd">
        <g id="logo">
            <mask id="mask-2" fill="white">
                <use xlink:href="#path-1"></use>
            </mask>
            <use id="Mask" fill="#FFFFFF" fill-rule="nonzero" xlink:href="#path-1"></use>
            <g id="Group" mask="url(#mask-2)">
                <g transform="translate(0.000000, -27.000000)">
                    <rect id="Rectangle" fill="#D0021B" x="0" y="107" width="120" height="107"></rect>
                    <polygon id="Triangle" fill="#000000" points="60 107 120 214 0 214"></polygon>
                    <rect id="Rectangle" fill="#4A90E2" x="0" y="0" width="120" height="107"></rect>
                </g>
            </g>
        </g>
    </g>
</svg>